<?xml version="1.0" encoding="UTF-8"?><svg xmlns="http://www.w3.org/2000/svg" xmlns:xlink="http://www.w3.org/1999/xlink" fill-opacity="1" color-rendering="auto" color-interpolation="auto" text-rendering="auto" stroke="black" stroke-linecap="square" width="3000" stroke-miterlimit="10" shape-rendering="auto" stroke-opacity="1" fill="black" stroke-dasharray="none" font-weight="normal" stroke-width="1" height="2332" font-family="'Dialog'" font-style="normal" stroke-linejoin="miter" font-size="12px" stroke-dashoffset="0" image-rendering="auto">
  <!--Generated by ySVG 2.5-->
  <defs id="genericDefs"/>
  <g>
    <defs id="defs1">
      <linearGradient x1="231.9873" gradientUnits="userSpaceOnUse" x2="236.654" y1="390.7296" y2="390.7296" id="linearGradient1" spreadMethod="reflect">
        <stop stop-opacity="1" stop-color="black" offset="0%"/>
        <stop stop-opacity="1" stop-color="black" offset="100%"/>
      </linearGradient>
      <linearGradient x1="281.4609" gradientUnits="userSpaceOnUse" x2="286.1276" y1="337.556" y2="337.556" id="linearGradient2" spreadMethod="reflect">
        <stop stop-opacity="1" stop-color="black" offset="0%"/>
        <stop stop-opacity="1" stop-color="black" offset="100%"/>
      </linearGradient>
      <linearGradient x1="316.3941" gradientUnits="userSpaceOnUse" x2="321.0608" y1="408.0437" y2="408.0437" id="linearGradient3" spreadMethod="reflect">
        <stop stop-opacity="1" stop-color="black" offset="0%"/>
        <stop stop-opacity="1" stop-color="black" offset="100%"/>
      </linearGradient>
      <linearGradient x1="406.99" gradientUnits="userSpaceOnUse" x2="411.6566" y1="386.7414" y2="386.7414" id="linearGradient4" spreadMethod="reflect">
        <stop stop-opacity="1" stop-color="black" offset="0%"/>
        <stop stop-opacity="1" stop-color="black" offset="100%"/>
      </linearGradient>
      <linearGradient x1="406.99" gradientUnits="userSpaceOnUse" x2="411.6566" y1="464.8448" y2="464.8448" id="linearGradient5" spreadMethod="reflect">
        <stop stop-opacity="1" stop-color="black" offset="0%"/>
        <stop stop-opacity="1" stop-color="black" offset="100%"/>
      </linearGradient>
      <linearGradient x1="479.9058" gradientUnits="userSpaceOnUse" x2="484.5725" y1="390.7296" y2="390.7296" id="linearGradient6" spreadMethod="reflect">
        <stop stop-opacity="1" stop-color="black" offset="0%"/>
        <stop stop-opacity="1" stop-color="black" offset="100%"/>
      </linearGradient>
      <linearGradient x1="415.9171" gradientUnits="userSpaceOnUse" x2="420.5838" y1="314.2555" y2="314.2555" id="linearGradient7" spreadMethod="reflect">
        <stop stop-opacity="1" stop-color="black" offset="0%"/>
        <stop stop-opacity="1" stop-color="black" offset="100%"/>
      </linearGradient>
      <clipPath clipPathUnits="userSpaceOnUse" id="clipPath1">
        <path d="M0 0 L3000 0 L3000 2332 L0 2332 L0 0 Z"/>
      </clipPath>
      <clipPath clipPathUnits="userSpaceOnUse" id="clipPath2">
        <path d="M189 245 L544 245 L544 520.9533 L189 520.9533 L189 245 Z"/>
      </clipPath>
    </defs>
    <g fill="white" text-rendering="geometricPrecision" shape-rendering="geometricPrecision" transform="scale(8.4507,8.4507) translate(-189,-245)" stroke="white">
      <rect x="189" width="355" height="276" y="245" clip-path="url(#clipPath2)" stroke="none"/>
    </g>
    <g fill="yellow" text-rendering="geometricPrecision" shape-rendering="geometricPrecision" transform="matrix(8.4507,0,0,8.4507,-1597.1831,-2070.4225)" stroke="yellow">
      <circle r="20" clip-path="url(#clipPath2)" cx="371.0608" cy="379.2296" stroke="none"/>
    </g>
    <g font-size="20px" stroke-linecap="butt" transform="matrix(8.4507,0,0,8.4507,-1597.1831,-2070.4225)" text-rendering="geometricPrecision" font-family="'Times New Roman'" shape-rendering="geometricPrecision" stroke-miterlimit="1.45">
      <text x="366.0608" xml:space="preserve" y="386.4025" clip-path="url(#clipPath2)" stroke="none">7</text>
      <circle fill="none" r="20" clip-path="url(#clipPath2)" cx="371.0608" cy="379.2296"/>
    </g>
    <g fill="yellow" text-rendering="geometricPrecision" shape-rendering="geometricPrecision" transform="matrix(8.4507,0,0,8.4507,-1597.1831,-2070.4225)" stroke="yellow">
      <circle r="20" clip-path="url(#clipPath2)" cx="286.654" cy="439.5437" stroke="none"/>
    </g>
    <g font-size="20px" stroke-linecap="butt" transform="matrix(8.4507,0,0,8.4507,-1597.1831,-2070.4225)" text-rendering="geometricPrecision" font-family="'Times New Roman'" shape-rendering="geometricPrecision" stroke-miterlimit="1.45">
      <text x="281.654" xml:space="preserve" y="446.7166" clip-path="url(#clipPath2)" stroke="none">6</text>
      <circle fill="none" r="20" clip-path="url(#clipPath2)" cx="286.654" cy="439.5437"/>
    </g>
    <g fill="yellow" text-rendering="geometricPrecision" shape-rendering="geometricPrecision" transform="matrix(8.4507,0,0,8.4507,-1597.1831,-2070.4225)" stroke="yellow">
      <circle r="20" clip-path="url(#clipPath2)" cx="452.1294" cy="428.0437" stroke="none"/>
    </g>
    <g font-size="20px" stroke-linecap="butt" transform="matrix(8.4507,0,0,8.4507,-1597.1831,-2070.4225)" text-rendering="geometricPrecision" font-family="'Times New Roman'" shape-rendering="geometricPrecision" stroke-miterlimit="1.45">
      <text x="447.1294" xml:space="preserve" y="435.2166" clip-path="url(#clipPath2)" stroke="none">9</text>
      <circle fill="none" r="20" clip-path="url(#clipPath2)" cx="452.1294" cy="428.0437"/>
    </g>
    <g fill="yellow" text-rendering="geometricPrecision" shape-rendering="geometricPrecision" transform="matrix(8.4507,0,0,8.4507,-1597.1831,-2070.4225)" stroke="yellow">
      <circle r="20" clip-path="url(#clipPath2)" cx="371.0608" cy="484.8448" stroke="none"/>
    </g>
    <g font-size="20px" stroke-linecap="butt" transform="matrix(8.4507,0,0,8.4507,-1597.1831,-2070.4225)" text-rendering="geometricPrecision" font-family="'Times New Roman'" shape-rendering="geometricPrecision" stroke-miterlimit="1.45">
      <text x="366.0608" xml:space="preserve" y="492.0176" clip-path="url(#clipPath2)" stroke="none">8</text>
      <circle fill="none" r="20" clip-path="url(#clipPath2)" cx="371.0608" cy="484.8448"/>
    </g>
    <g fill="white" text-rendering="geometricPrecision" shape-rendering="geometricPrecision" transform="matrix(8.4507,0,0,8.4507,-1597.1831,-2070.4225)" stroke="white">
      <path d="M204.4783 332.7717 L216.194 321.056 L232.7625 321.056 L244.4783 332.7717 L244.4783 349.3403 L232.7625 361.056 L216.194 361.056 L204.4783 349.3403 Z" fill-rule="evenodd" clip-path="url(#clipPath2)" stroke="none"/>
    </g>
    <g font-size="20px" stroke-linecap="butt" transform="matrix(8.4507,0,0,8.4507,-1597.1831,-2070.4225)" text-rendering="geometricPrecision" font-family="'Times New Roman'" shape-rendering="geometricPrecision" stroke-miterlimit="1.45">
      <text x="219.4783" xml:space="preserve" y="348.2289" clip-path="url(#clipPath2)" stroke="none">5</text>
      <path fill="none" stroke-dasharray="6,2" d="M204.4783 332.7717 L216.194 321.056 L232.7625 321.056 L244.4783 332.7717 L244.4783 349.3403 L232.7625 361.056 L216.194 361.056 L204.4783 349.3403 Z" clip-path="url(#clipPath2)" fill-rule="evenodd"/>
    </g>
    <g fill="url(#linearGradient1)" text-rendering="geometricPrecision" shape-rendering="geometricPrecision" transform="matrix(8.4507,0,0,8.4507,-1597.1831,-2070.4225)" stroke="url(#linearGradient1)">
      <rect x="229.654" width="7" height="7" y="390.7296" clip-path="url(#clipPath2)" stroke="none"/>
    </g>
    <g font-size="22px" stroke-linecap="butt" transform="matrix(8.4507,0,0,8.4507,-1597.1831,-2070.4225)" text-rendering="geometricPrecision" font-family="'Traditional Arabic'" shape-rendering="geometricPrecision" stroke-miterlimit="1.45">
      <text x="212.5426" xml:space="preserve" y="418.6007" clip-path="url(#clipPath2)" stroke="none">r9</text>
      <rect fill="none" x="229.654" width="7" height="7" y="390.7296" clip-path="url(#clipPath2)"/>
    </g>
    <g fill="white" text-rendering="geometricPrecision" shape-rendering="geometricPrecision" transform="matrix(8.4507,0,0,8.4507,-1597.1831,-2070.4225)" stroke="white">
      <path d="M488.9676 336.7268 L500.6833 325.0111 L517.2519 325.0111 L528.9677 336.7268 L528.9677 353.2953 L517.2519 365.0111 L500.6833 365.0111 L488.9676 353.2953 Z" fill-rule="evenodd" clip-path="url(#clipPath2)" stroke="none"/>
    </g>
    <g font-size="20px" stroke-linecap="butt" transform="matrix(8.4507,0,0,8.4507,-1597.1831,-2070.4225)" text-rendering="geometricPrecision" font-family="'Times New Roman'" shape-rendering="geometricPrecision" stroke-miterlimit="1.45">
      <text x="498.9676" xml:space="preserve" y="352.1839" clip-path="url(#clipPath2)" stroke="none">10</text>
      <path fill="none" stroke-dasharray="6,2" d="M488.9676 336.7268 L500.6833 325.0111 L517.2519 325.0111 L528.9677 336.7268 L528.9677 353.2953 L517.2519 365.0111 L500.6833 365.0111 L488.9676 353.2953 Z" clip-path="url(#clipPath2)" fill-rule="evenodd"/>
    </g>
    <g fill="url(#linearGradient2)" text-rendering="geometricPrecision" shape-rendering="geometricPrecision" transform="matrix(8.4507,0,0,8.4507,-1597.1831,-2070.4225)" stroke="url(#linearGradient2)">
      <rect x="279.1276" width="7" height="7" y="337.556" clip-path="url(#clipPath2)" stroke="none"/>
    </g>
    <g font-size="22px" stroke-linecap="butt" transform="matrix(8.4507,0,0,8.4507,-1597.1831,-2070.4225)" text-rendering="geometricPrecision" font-family="'Traditional Arabic'" shape-rendering="geometricPrecision" stroke-miterlimit="1.45">
      <text x="277.0719" xml:space="preserve" y="327.5453" clip-path="url(#clipPath2)" stroke="none">r8</text>
      <rect fill="none" x="279.1276" width="7" height="7" y="337.556" clip-path="url(#clipPath2)"/>
    </g>
    <g fill="url(#linearGradient3)" text-rendering="geometricPrecision" shape-rendering="geometricPrecision" transform="matrix(8.4507,0,0,8.4507,-1597.1831,-2070.4225)" stroke="url(#linearGradient3)">
      <rect x="314.0608" width="7" height="7" y="408.0437" clip-path="url(#clipPath2)" stroke="none"/>
    </g>
    <g font-size="22px" stroke-linecap="butt" transform="matrix(8.4507,0,0,8.4507,-1597.1831,-2070.4225)" text-rendering="geometricPrecision" font-family="'Traditional Arabic'" shape-rendering="geometricPrecision" stroke-miterlimit="1.45">
      <text x="286.1643" xml:space="preserve" y="405.4302" clip-path="url(#clipPath2)" stroke="none">r16</text>
      <rect fill="none" x="314.0608" width="7" height="7" y="408.0437" clip-path="url(#clipPath2)"/>
    </g>
    <g fill="url(#linearGradient4)" text-rendering="geometricPrecision" shape-rendering="geometricPrecision" transform="matrix(8.4507,0,0,8.4507,-1597.1831,-2070.4225)" stroke="url(#linearGradient4)">
      <rect x="404.6567" width="7" height="7" y="386.7414" clip-path="url(#clipPath2)" stroke="none"/>
    </g>
    <g font-size="22px" stroke-linecap="butt" transform="matrix(8.4507,0,0,8.4507,-1597.1831,-2070.4225)" text-rendering="geometricPrecision" font-family="'Traditional Arabic'" shape-rendering="geometricPrecision" stroke-miterlimit="1.45">
      <text x="410.6566" xml:space="preserve" y="376.7306" clip-path="url(#clipPath2)" stroke="none">r17</text>
      <rect fill="none" x="404.6567" width="7" height="7" y="386.7414" clip-path="url(#clipPath2)"/>
    </g>
    <g fill="url(#linearGradient5)" text-rendering="geometricPrecision" shape-rendering="geometricPrecision" transform="matrix(8.4507,0,0,8.4507,-1597.1831,-2070.4225)" stroke="url(#linearGradient5)">
      <rect x="404.6567" width="7" height="7" y="464.8448" clip-path="url(#clipPath2)" stroke="none"/>
    </g>
    <g font-size="22px" stroke-linecap="butt" transform="matrix(8.4507,0,0,8.4507,-1597.1831,-2070.4225)" text-rendering="geometricPrecision" font-family="'Traditional Arabic'" shape-rendering="geometricPrecision" stroke-miterlimit="1.45">
      <text x="405.9936" xml:space="preserve" y="492.7159" clip-path="url(#clipPath2)" stroke="none">r18</text>
      <rect fill="none" x="404.6567" width="7" height="7" y="464.8448" clip-path="url(#clipPath2)"/>
    </g>
    <g fill="url(#linearGradient6)" text-rendering="geometricPrecision" shape-rendering="geometricPrecision" transform="matrix(8.4507,0,0,8.4507,-1597.1831,-2070.4225)" stroke="url(#linearGradient6)">
      <rect x="477.5725" width="7" height="7" y="390.7296" clip-path="url(#clipPath2)" stroke="none"/>
    </g>
    <g font-size="22px" stroke-linecap="butt" transform="matrix(8.4507,0,0,8.4507,-1597.1831,-2070.4225)" text-rendering="geometricPrecision" font-family="'Traditional Arabic'" shape-rendering="geometricPrecision" stroke-miterlimit="1.45">
      <text x="478.9094" xml:space="preserve" y="418.6007" clip-path="url(#clipPath2)" stroke="none">r19</text>
      <rect fill="none" x="477.5725" width="7" height="7" y="390.7296" clip-path="url(#clipPath2)"/>
    </g>
    <g fill="white" text-rendering="geometricPrecision" shape-rendering="geometricPrecision" transform="matrix(8.4507,0,0,8.4507,-1597.1831,-2070.4225)" stroke="white">
      <path d="M443.7208 272.2268 L455.4365 260.5111 L472.005 260.5111 L483.7208 272.2268 L483.7208 288.7953 L472.005 300.5111 L455.4365 300.5111 L443.7208 288.7953 Z" fill-rule="evenodd" clip-path="url(#clipPath2)" stroke="none"/>
    </g>
    <g font-size="20px" stroke-linecap="butt" transform="matrix(8.4507,0,0,8.4507,-1597.1831,-2070.4225)" text-rendering="geometricPrecision" font-family="'Times New Roman'" shape-rendering="geometricPrecision" stroke-miterlimit="1.45">
      <text x="453.7208" xml:space="preserve" y="287.6839" clip-path="url(#clipPath2)" stroke="none">15</text>
      <path fill="none" stroke-dasharray="6,2" d="M443.7208 272.2268 L455.4365 260.5111 L472.005 260.5111 L483.7208 272.2268 L483.7208 288.7953 L472.005 300.5111 L455.4365 300.5111 L443.7208 288.7953 Z" clip-path="url(#clipPath2)" fill-rule="evenodd"/>
    </g>
    <g fill="url(#linearGradient7)" text-rendering="geometricPrecision" shape-rendering="geometricPrecision" transform="matrix(8.4507,0,0,8.4507,-1597.1831,-2070.4225)" stroke="url(#linearGradient7)">
      <rect x="413.5838" width="7" height="7" y="314.2555" clip-path="url(#clipPath2)" stroke="none"/>
    </g>
    <g font-size="22px" stroke-linecap="butt" transform="matrix(8.4507,0,0,8.4507,-1597.1831,-2070.4225)" text-rendering="geometricPrecision" font-family="'Traditional Arabic'" shape-rendering="geometricPrecision" stroke-miterlimit="1.45">
      <text x="393.5518" xml:space="preserve" y="304.2448" clip-path="url(#clipPath2)" stroke="none">r15</text>
      <rect fill="none" x="413.5838" width="7" height="7" y="314.2555" clip-path="url(#clipPath2)"/>
      <path fill="none" d="M227.7444 361.074 L232.5829 390.7296" stroke-width="3" clip-path="url(#clipPath2)"/>
      <path fill="none" d="M236.654 397.1941 L263.7618 420.1543" stroke-width="3" clip-path="url(#clipPath2)"/>
      <path d="M271.3926 426.6174 L263.9859 412.1535 L262.808 419.3464 L255.907 421.6919 Z" stroke-width="3" clip-path="url(#clipPath2)" stroke="none"/>
      <path fill="none" d="M244.4955 341.056 L279.1276 341.056" stroke-width="3" clip-path="url(#clipPath2)"/>
      <path fill="none" d="M286.1276 342.5668 L343.5174 367.3401" stroke-width="3" clip-path="url(#clipPath2)"/>
      <path d="M352.6985 371.3033 L341.4039 359.6203 L342.3698 366.8447 L336.4499 371.0967 Z" stroke-width="3" clip-path="url(#clipPath2)" stroke="none"/>
      <path fill="none" d="M286.1276 341.1172 L478.9756 344.487" stroke-width="3" clip-path="url(#clipPath2)"/>
      <path d="M488.974 344.6617 L474.0855 338.1506 L477.7257 344.4651 L473.8671 350.6487 Z" stroke-width="3" clip-path="url(#clipPath2)" stroke="none"/>
      <path fill="none" d="M301.476 426.1158 L314.0608 414.7145" stroke-width="3" clip-path="url(#clipPath2)"/>
      <path fill="none" d="M321.0608 409.4297 L345.3815 394.74" stroke-width="3" clip-path="url(#clipPath2)"/>
      <path d="M353.9413 389.5699 L337.8702 391.9752 L344.3115 395.3863 L344.3329 402.6749 Z" stroke-width="3" clip-path="url(#clipPath2)" stroke="none"/>
      <path fill="none" d="M320.1153 415.0437 L353.3746 460.6126" stroke-width="3" clip-path="url(#clipPath2)"/>
      <path d="M359.27 468.69 L355.4752 452.8893 L352.6376 459.603 L345.3785 460.2586 Z" stroke-width="3" clip-path="url(#clipPath2)" stroke="none"/>
      <path fill="none" d="M390.2339 384.9211 L404.6566 389.2024" stroke-width="3" clip-path="url(#clipPath2)"/>
      <path fill="none" d="M411.6566 393.2502 L429.3802 408.4868" stroke-width="3" clip-path="url(#clipPath2)"/>
      <path d="M436.9633 415.0057 L429.663 400.4879 L428.4323 407.6719 L421.5143 409.9667 Z" stroke-width="3" clip-path="url(#clipPath2)" stroke="none"/>
      <path fill="none" d="M389.3347 476.7167 L404.6566 469.9016" stroke-width="3" clip-path="url(#clipPath2)"/>
      <path fill="none" d="M411.6566 465.137 L430.0129 448.3135" stroke-width="3" clip-path="url(#clipPath2)"/>
      <path d="M437.3851 441.5569 L422.104 447.0842 L429.0914 449.1581 L430.5497 456.2993 Z" stroke-width="3" clip-path="url(#clipPath2)" stroke="none"/>
      <path fill="none" d="M465.1348 412.8496 L478.0767 397.7296" stroke-width="3" clip-path="url(#clipPath2)"/>
      <path fill="none" d="M483.0562 390.7296 L493.8014 371.7707" stroke-width="3" clip-path="url(#clipPath2)"/>
      <path d="M498.7321 363.0708 L485.8986 373.0389 L493.185 372.8582 L496.7734 379.2023 Z" stroke-width="3" clip-path="url(#clipPath2)" stroke="none"/>
      <path fill="none" d="M383.047 363.2193 L414.4635 321.2555" stroke-width="3" clip-path="url(#clipPath2)"/>
      <path fill="none" d="M420.5838 314.9604 L440.1727 299.3167" stroke-width="3" clip-path="url(#clipPath2)"/>
      <path d="M447.9867 293.0764 L432.3655 297.5531 L439.196 300.0967 L440.1659 307.3206 Z" stroke-width="3" clip-path="url(#clipPath2)" stroke="none"/>
    </g>
  </g>
</svg>
