<?xml version="1.0" encoding="UTF-8"?><svg xmlns="http://www.w3.org/2000/svg" xmlns:xlink="http://www.w3.org/1999/xlink" fill-opacity="1" color-rendering="auto" color-interpolation="auto" text-rendering="auto" stroke="black" stroke-linecap="square" width="357" stroke-miterlimit="10" shape-rendering="auto" stroke-opacity="1" fill="black" stroke-dasharray="none" font-weight="normal" stroke-width="1" height="290" font-family="'Dialog'" font-style="normal" stroke-linejoin="miter" font-size="12px" stroke-dashoffset="0" image-rendering="auto">
  <!--Generated by ySVG 2.5-->
  <defs id="genericDefs"/>
  <g>
    <defs id="defs1">
      <linearGradient x1="338.655" gradientUnits="userSpaceOnUse" x2="365.3217" y1="329.9741" y2="329.9741" id="linearGradient1" spreadMethod="reflect">
        <stop stop-opacity="0.098" stop-color="rgb(255,255,255)" offset="0%"/>
        <stop stop-opacity="0.098" stop-color="rgb(255,255,255)" offset="100%"/>
      </linearGradient>
      <linearGradient x1="254.2482" gradientUnits="userSpaceOnUse" x2="280.9149" y1="390.2882" y2="390.2882" id="linearGradient2" spreadMethod="reflect">
        <stop stop-opacity="0.098" stop-color="rgb(255,255,255)" offset="0%"/>
        <stop stop-opacity="0.098" stop-color="rgb(255,255,255)" offset="100%"/>
      </linearGradient>
      <linearGradient x1="419.7236" gradientUnits="userSpaceOnUse" x2="446.3903" y1="378.7882" y2="378.7882" id="linearGradient3" spreadMethod="reflect">
        <stop stop-opacity="0.098" stop-color="rgb(255,255,255)" offset="0%"/>
        <stop stop-opacity="0.098" stop-color="rgb(255,255,255)" offset="100%"/>
      </linearGradient>
      <linearGradient x1="338.655" gradientUnits="userSpaceOnUse" x2="365.3217" y1="435.5892" y2="435.5892" id="linearGradient4" spreadMethod="reflect">
        <stop stop-opacity="0.098" stop-color="rgb(255,255,255)" offset="0%"/>
        <stop stop-opacity="0.098" stop-color="rgb(255,255,255)" offset="100%"/>
      </linearGradient>
      <linearGradient x1="206.2482" gradientUnits="userSpaceOnUse" x2="210.9148" y1="361.4741" y2="361.4741" id="linearGradient5" spreadMethod="reflect">
        <stop stop-opacity="0.098" stop-color="rgb(255,255,255)" offset="0%"/>
        <stop stop-opacity="0.098" stop-color="rgb(255,255,255)" offset="100%"/>
      </linearGradient>
      <linearGradient x1="255.7218" gradientUnits="userSpaceOnUse" x2="260.3884" y1="308.3004" y2="308.3004" id="linearGradient6" spreadMethod="reflect">
        <stop stop-opacity="0.098" stop-color="rgb(255,255,255)" offset="0%"/>
        <stop stop-opacity="0.098" stop-color="rgb(255,255,255)" offset="100%"/>
      </linearGradient>
      <linearGradient x1="290.655" gradientUnits="userSpaceOnUse" x2="295.3217" y1="378.7882" y2="378.7882" id="linearGradient7" spreadMethod="reflect">
        <stop stop-opacity="0.098" stop-color="rgb(255,255,255)" offset="0%"/>
        <stop stop-opacity="0.098" stop-color="rgb(255,255,255)" offset="100%"/>
      </linearGradient>
      <linearGradient x1="381.2509" gradientUnits="userSpaceOnUse" x2="385.9175" y1="357.4858" y2="357.4858" id="linearGradient8" spreadMethod="reflect">
        <stop stop-opacity="0.098" stop-color="rgb(255,255,255)" offset="0%"/>
        <stop stop-opacity="0.098" stop-color="rgb(255,255,255)" offset="100%"/>
      </linearGradient>
      <linearGradient x1="381.2509" gradientUnits="userSpaceOnUse" x2="385.9175" y1="435.5892" y2="435.5892" id="linearGradient9" spreadMethod="reflect">
        <stop stop-opacity="0.098" stop-color="rgb(255,255,255)" offset="0%"/>
        <stop stop-opacity="0.098" stop-color="rgb(255,255,255)" offset="100%"/>
      </linearGradient>
      <linearGradient x1="454.1667" gradientUnits="userSpaceOnUse" x2="458.8334" y1="361.4741" y2="361.4741" id="linearGradient10" spreadMethod="reflect">
        <stop stop-opacity="0.098" stop-color="rgb(255,255,255)" offset="0%"/>
        <stop stop-opacity="0.098" stop-color="rgb(255,255,255)" offset="100%"/>
      </linearGradient>
      <linearGradient x1="399.155" gradientUnits="userSpaceOnUse" x2="403.8217" y1="277.7487" y2="277.7487" id="linearGradient11" spreadMethod="reflect">
        <stop stop-opacity="0.098" stop-color="rgb(255,255,255)" offset="0%"/>
        <stop stop-opacity="0.098" stop-color="rgb(255,255,255)" offset="100%"/>
      </linearGradient>
      <clipPath clipPathUnits="userSpaceOnUse" id="clipPath1">
        <path d="M0 0 L357 0 L357 290 L0 290 L0 0 Z"/>
      </clipPath>
      <clipPath clipPathUnits="userSpaceOnUse" id="clipPath2">
        <path d="M163 201 L520 201 L520 491 L163 491 L163 201 Z"/>
      </clipPath>
    </defs>
    <g fill="white" text-rendering="geometricPrecision" shape-rendering="geometricPrecision" transform="translate(-163,-201)" stroke="white">
      <rect x="163" width="357" height="290" y="201" clip-path="url(#clipPath2)" stroke="none"/>
    </g>
    <g fill="url(#linearGradient1)" text-rendering="geometricPrecision" shape-rendering="geometricPrecision" transform="matrix(1,0,0,1,-163,-201)" stroke="url(#linearGradient1)">
      <circle r="20" clip-path="url(#clipPath2)" cx="345.3217" cy="349.9741" stroke="none"/>
    </g>
    <g stroke-linecap="butt" font-size="20px" transform="matrix(1,0,0,1,-163,-201)" fill-opacity="0.098" fill="rgb(0,0,0)" text-rendering="geometricPrecision" font-family="'Times New Roman'" shape-rendering="geometricPrecision" stroke="rgb(0,0,0)" stroke-opacity="0.098" stroke-miterlimit="1.45">
      <text x="332.5433" xml:space="preserve" y="357.147" clip-path="url(#clipPath2)" stroke="none">m7</text>
      <circle fill="none" r="20" clip-path="url(#clipPath2)" cx="345.3217" cy="349.9741"/>
    </g>
    <g fill="url(#linearGradient2)" text-rendering="geometricPrecision" shape-rendering="geometricPrecision" transform="matrix(1,0,0,1,-163,-201)" stroke="url(#linearGradient2)">
      <circle r="20" clip-path="url(#clipPath2)" cx="260.9148" cy="410.2882" stroke="none"/>
    </g>
    <g stroke-linecap="butt" font-size="20px" transform="matrix(1,0,0,1,-163,-201)" fill-opacity="0.098" fill="rgb(0,0,0)" text-rendering="geometricPrecision" font-family="'Times New Roman'" shape-rendering="geometricPrecision" stroke="rgb(0,0,0)" stroke-opacity="0.098" stroke-miterlimit="1.45">
      <text x="248.1365" xml:space="preserve" y="417.461" clip-path="url(#clipPath2)" stroke="none">m6</text>
      <circle fill="none" r="20" clip-path="url(#clipPath2)" cx="260.9148" cy="410.2882"/>
    </g>
    <g fill="url(#linearGradient3)" text-rendering="geometricPrecision" shape-rendering="geometricPrecision" transform="matrix(1,0,0,1,-163,-201)" stroke="url(#linearGradient3)">
      <circle r="20" clip-path="url(#clipPath2)" cx="426.3902" cy="398.7882" stroke="none"/>
    </g>
    <g stroke-linecap="butt" font-size="20px" transform="matrix(1,0,0,1,-163,-201)" fill-opacity="0.098" fill="rgb(0,0,0)" text-rendering="geometricPrecision" font-family="'Times New Roman'" shape-rendering="geometricPrecision" stroke="rgb(0,0,0)" stroke-opacity="0.098" stroke-miterlimit="1.45">
      <text x="413.6119" xml:space="preserve" y="405.961" clip-path="url(#clipPath2)" stroke="none">m9</text>
      <circle fill="none" r="20" clip-path="url(#clipPath2)" cx="426.3902" cy="398.7882"/>
    </g>
    <g fill="url(#linearGradient4)" text-rendering="geometricPrecision" shape-rendering="geometricPrecision" transform="matrix(1,0,0,1,-163,-201)" stroke="url(#linearGradient4)">
      <circle r="20" clip-path="url(#clipPath2)" cx="345.3217" cy="455.5892" stroke="none"/>
    </g>
    <g stroke-linecap="butt" font-size="20px" transform="matrix(1,0,0,1,-163,-201)" fill-opacity="0.098" fill="rgb(0,0,0)" text-rendering="geometricPrecision" font-family="'Times New Roman'" shape-rendering="geometricPrecision" stroke="rgb(0,0,0)" stroke-opacity="0.098" stroke-miterlimit="1.45">
      <text x="332.5433" xml:space="preserve" y="462.7621" clip-path="url(#clipPath2)" stroke="none">m8</text>
      <circle fill="none" r="20" clip-path="url(#clipPath2)" cx="345.3217" cy="455.5892"/>
    </g>
    <g fill="white" text-rendering="geometricPrecision" shape-rendering="geometricPrecision" transform="matrix(1,0,0,1,-163,-201)" stroke="white">
      <path d="M178.7391 303.5162 L190.4549 291.8004 L207.0234 291.8004 L218.7391 303.5162 L218.7391 320.0847 L207.0234 331.8004 L190.4549 331.8004 L178.7391 320.0847 Z" fill-rule="evenodd" clip-path="url(#clipPath2)" stroke="none"/>
    </g>
    <g font-size="22px" stroke-linecap="butt" transform="matrix(1,0,0,1,-163,-201)" text-rendering="geometricPrecision" font-family="'Times New Roman'" shape-rendering="geometricPrecision" stroke-miterlimit="1.45">
      <text x="184.683" xml:space="preserve" y="319.6906" clip-path="url(#clipPath2)" stroke="none">m5</text>
      <path fill="none" stroke-dasharray="6,2" d="M178.7391 303.5162 L190.4549 291.8004 L207.0234 291.8004 L218.7391 303.5162 L218.7391 320.0847 L207.0234 331.8004 L190.4549 331.8004 L178.7391 320.0847 Z" clip-path="url(#clipPath2)" fill-rule="evenodd"/>
    </g>
    <g fill="url(#linearGradient5)" text-rendering="geometricPrecision" shape-rendering="geometricPrecision" transform="matrix(1,0,0,1,-163,-201)" stroke="url(#linearGradient5)">
      <rect x="203.9148" width="7" height="7" y="361.4741" clip-path="url(#clipPath2)" stroke="none"/>
    </g>
    <g stroke-linecap="butt" font-size="20px" transform="matrix(1,0,0,1,-163,-201)" fill-opacity="0.098" fill="rgb(0,0,0)" text-rendering="geometricPrecision" font-family="'Times New Roman'" shape-rendering="geometricPrecision" stroke="rgb(0,0,0)" stroke-opacity="0.098" stroke-miterlimit="1.45">
      <text x="216.9148" xml:space="preserve" y="362.4069" clip-path="url(#clipPath2)" stroke="none">r9</text>
      <rect fill="none" x="203.9148" width="7" height="7" y="361.4741" clip-path="url(#clipPath2)"/>
    </g>
    <g fill="white" text-rendering="geometricPrecision" shape-rendering="geometricPrecision" transform="matrix(1,0,0,1,-163,-201)" stroke="white">
      <path d="M463.2285 307.4713 L474.9442 295.7555 L491.5128 295.7555 L503.2285 307.4713 L503.2285 324.0398 L491.5128 335.7555 L474.9442 335.7555 L463.2285 324.0398 Z" fill-rule="evenodd" clip-path="url(#clipPath2)" stroke="none"/>
    </g>
    <g font-size="22px" stroke-linecap="butt" transform="matrix(1,0,0,1,-163,-201)" text-rendering="geometricPrecision" font-family="'Times New Roman'" shape-rendering="geometricPrecision" stroke-miterlimit="1.45">
      <text x="463.6723" xml:space="preserve" y="323.6457" clip-path="url(#clipPath2)" stroke="none">m10</text>
      <path fill="none" stroke-dasharray="6,2" d="M463.2285 307.4713 L474.9442 295.7555 L491.5128 295.7555 L503.2285 307.4713 L503.2285 324.0398 L491.5128 335.7555 L474.9442 335.7555 L463.2285 324.0398 Z" clip-path="url(#clipPath2)" fill-rule="evenodd"/>
    </g>
    <g fill="url(#linearGradient6)" text-rendering="geometricPrecision" shape-rendering="geometricPrecision" transform="matrix(1,0,0,1,-163,-201)" stroke="url(#linearGradient6)">
      <rect x="253.3884" width="7" height="7" y="308.3005" clip-path="url(#clipPath2)" stroke="none"/>
    </g>
    <g stroke-linecap="butt" font-size="20px" transform="matrix(1,0,0,1,-163,-201)" fill-opacity="0.098" fill="rgb(0,0,0)" text-rendering="geometricPrecision" font-family="'Times New Roman'" shape-rendering="geometricPrecision" stroke="rgb(0,0,0)" stroke-opacity="0.098" stroke-miterlimit="1.45">
      <text x="266.3884" xml:space="preserve" y="300.1842" clip-path="url(#clipPath2)" stroke="none">r8</text>
      <rect fill="none" x="253.3884" width="7" height="7" y="308.3005" clip-path="url(#clipPath2)"/>
    </g>
    <g fill="url(#linearGradient7)" text-rendering="geometricPrecision" shape-rendering="geometricPrecision" transform="matrix(1,0,0,1,-163,-201)" stroke="url(#linearGradient7)">
      <rect x="288.3217" width="7" height="7" y="378.7882" clip-path="url(#clipPath2)" stroke="none"/>
    </g>
    <g stroke-linecap="butt" font-size="20px" transform="matrix(1,0,0,1,-163,-201)" fill-opacity="0.098" fill="rgb(0,0,0)" text-rendering="geometricPrecision" font-family="'Times New Roman'" shape-rendering="geometricPrecision" stroke="rgb(0,0,0)" stroke-opacity="0.098" stroke-miterlimit="1.45">
      <text x="301.3217" xml:space="preserve" y="392.961" clip-path="url(#clipPath2)" stroke="none">r16</text>
      <rect fill="none" x="288.3217" width="7" height="7" y="378.7882" clip-path="url(#clipPath2)"/>
    </g>
    <g fill="url(#linearGradient8)" text-rendering="geometricPrecision" shape-rendering="geometricPrecision" transform="matrix(1,0,0,1,-163,-201)" stroke="url(#linearGradient8)">
      <rect x="378.9175" width="7" height="7" y="357.4858" clip-path="url(#clipPath2)" stroke="none"/>
    </g>
    <g stroke-linecap="butt" font-size="20px" transform="matrix(1,0,0,1,-163,-201)" fill-opacity="0.098" fill="rgb(0,0,0)" text-rendering="geometricPrecision" font-family="'Times New Roman'" shape-rendering="geometricPrecision" stroke="rgb(0,0,0)" stroke-opacity="0.098" stroke-miterlimit="1.45">
      <text x="353.2574" xml:space="preserve" y="381.7329" clip-path="url(#clipPath2)" stroke="none">r17</text>
      <rect fill="none" x="378.9175" width="7" height="7" y="357.4858" clip-path="url(#clipPath2)"/>
    </g>
    <g fill="url(#linearGradient9)" text-rendering="geometricPrecision" shape-rendering="geometricPrecision" transform="matrix(1,0,0,1,-163,-201)" stroke="url(#linearGradient9)">
      <rect x="378.9175" width="7" height="7" y="435.5892" clip-path="url(#clipPath2)" stroke="none"/>
    </g>
    <g stroke-linecap="butt" font-size="20px" transform="matrix(1,0,0,1,-163,-201)" fill-opacity="0.098" fill="rgb(0,0,0)" text-rendering="geometricPrecision" font-family="'Times New Roman'" shape-rendering="geometricPrecision" stroke="rgb(0,0,0)" stroke-opacity="0.098" stroke-miterlimit="1.45">
      <text x="384.9175" xml:space="preserve" y="456.8268" clip-path="url(#clipPath2)" stroke="none">r18</text>
      <rect fill="none" x="378.9175" width="7" height="7" y="435.5892" clip-path="url(#clipPath2)"/>
    </g>
    <g fill="url(#linearGradient10)" text-rendering="geometricPrecision" shape-rendering="geometricPrecision" transform="matrix(1,0,0,1,-163,-201)" stroke="url(#linearGradient10)">
      <rect x="451.8334" width="7" height="7" y="361.4741" clip-path="url(#clipPath2)" stroke="none"/>
    </g>
    <g stroke-linecap="butt" font-size="20px" transform="matrix(1,0,0,1,-163,-201)" fill-opacity="0.098" fill="rgb(0,0,0)" text-rendering="geometricPrecision" font-family="'Times New Roman'" shape-rendering="geometricPrecision" stroke="rgb(0,0,0)" stroke-opacity="0.098" stroke-miterlimit="1.45">
      <text x="457.8334" xml:space="preserve" y="380.1279" clip-path="url(#clipPath2)" stroke="none">r19</text>
      <rect fill="none" x="451.8334" width="7" height="7" y="361.4741" clip-path="url(#clipPath2)"/>
    </g>
    <g fill="white" text-rendering="geometricPrecision" shape-rendering="geometricPrecision" transform="matrix(1,0,0,1,-163,-201)" stroke="white">
      <path d="M412.7105 228.7089 L424.4262 216.9931 L440.9948 216.9931 L452.7105 228.7089 L452.7105 245.2774 L440.9948 256.9932 L424.4262 256.9932 L412.7105 245.2774 Z" fill-rule="evenodd" clip-path="url(#clipPath2)" stroke="none"/>
    </g>
    <g font-size="22px" stroke-linecap="butt" transform="matrix(1,0,0,1,-163,-201)" text-rendering="geometricPrecision" font-family="'Times New Roman'" shape-rendering="geometricPrecision" stroke-miterlimit="1.45">
      <text x="413.1544" xml:space="preserve" y="244.8833" clip-path="url(#clipPath2)" stroke="none">m16</text>
      <path fill="none" stroke-dasharray="6,2" d="M412.7105 228.7089 L424.4262 216.9931 L440.9948 216.9931 L452.7105 228.7089 L452.7105 245.2774 L440.9948 256.9932 L424.4262 256.9932 L412.7105 245.2774 Z" clip-path="url(#clipPath2)" fill-rule="evenodd"/>
    </g>
    <g fill="url(#linearGradient11)" text-rendering="geometricPrecision" shape-rendering="geometricPrecision" transform="matrix(1,0,0,1,-163,-201)" stroke="url(#linearGradient11)">
      <rect x="396.8217" width="7" height="7" y="277.7487" clip-path="url(#clipPath2)" stroke="none"/>
    </g>
    <g stroke-linecap="butt" font-size="20px" transform="matrix(1,0,0,1,-163,-201)" fill-opacity="0.098" fill="rgb(0,0,0)" text-rendering="geometricPrecision" font-family="'Times New Roman'" shape-rendering="geometricPrecision" stroke="rgb(0,0,0)" stroke-opacity="0.098" stroke-miterlimit="1.45">
      <text x="409.8217" xml:space="preserve" y="290.8141" clip-path="url(#clipPath2)" stroke="none">r15</text>
      <rect fill="none" x="396.8217" width="7" height="7" y="277.7487" clip-path="url(#clipPath2)"/>
    </g>
    <g fill="white" text-rendering="geometricPrecision" shape-rendering="geometricPrecision" transform="matrix(1,0,0,1,-163,-201)" stroke="white">
      <rect x="338.6525" width="10" height="10" y="390.2882" clip-path="url(#clipPath2)" stroke="none"/>
    </g>
    <g font-size="22px" stroke-linecap="butt" transform="matrix(1,0,0,1,-163,-201)" text-rendering="geometricPrecision" font-family="'Times New Roman'" shape-rendering="geometricPrecision" stroke-miterlimit="1.45">
      <text x="354.6526" xml:space="preserve" y="422.36" clip-path="url(#clipPath2)" stroke="none">R1</text>
      <rect fill="none" x="338.6525" width="10" height="10" y="390.2882" clip-path="url(#clipPath2)"/>
    </g>
    <g stroke-linecap="butt" transform="matrix(1,0,0,1,-163,-201)" fill-opacity="0.098" fill="rgb(0,0,255)" text-rendering="geometricPrecision" shape-rendering="geometricPrecision" stroke="rgb(0,0,255)" stroke-width="4" stroke-opacity="0.098" stroke-miterlimit="1.45">
      <path fill="none" d="M202.0052 331.8185 L206.8438 361.4741" clip-path="url(#clipPath2)"/>
      <path fill="none" d="M210.9148 367.9386 L237.2596 390.2524" clip-path="url(#clipPath2)"/>
      <path d="M245.6534 397.3619 L237.5062 381.4516 L236.2104 389.3637 L228.6193 391.9438 Z" clip-path="url(#clipPath2)" stroke="none"/>
      <path fill="none" d="M218.7563 311.8004 L253.3884 311.8004" stroke-width="1" clip-path="url(#clipPath2)" stroke="rgb(102,102,102)"/>
      <path fill="none" d="M260.3884 313.3113 L319.6145 338.8772" stroke-width="1" clip-path="url(#clipPath2)" stroke="rgb(102,102,102)"/>
      <path fill="rgb(102,102,102)" d="M326.9594 342.0477 L317.9236 332.7014 L318.6964 338.4809 L313.9604 341.8825 Z" stroke-width="1" clip-path="url(#clipPath2)" stroke="none"/>
      <path fill="none" d="M260.3884 311.8616 L455.2361 315.2664" stroke-width="1" clip-path="url(#clipPath2)" stroke="rgb(102,102,102)"/>
      <path fill="rgb(102,102,102)" d="M463.2349 315.4062 L451.3241 310.1973 L454.2363 315.2489 L451.1494 320.1957 Z" stroke-width="1" clip-path="url(#clipPath2)" stroke="none"/>
      <path fill="none" d="M275.7368 396.8602 L288.3217 385.459" clip-path="url(#clipPath2)"/>
      <path fill="none" d="M295.3217 380.1742 L318.7863 366.0015" clip-path="url(#clipPath2)"/>
      <path d="M328.2021 360.3143 L310.524 362.9601 L317.6094 366.7123 L317.6329 374.7299 Z" clip-path="url(#clipPath2)" stroke="none"/>
      <path fill="none" d="M294.3762 385.7882 L327.0459 430.5493" clip-path="url(#clipPath2)"/>
      <path d="M333.5309 439.4345 L329.3566 422.0537 L326.2353 429.4387 L318.2502 430.1599 Z" clip-path="url(#clipPath2)" stroke="none"/>
      <path fill="none" d="M364.4948 355.6655 L378.9175 359.9469" clip-path="url(#clipPath2)"/>
      <path fill="none" d="M385.9175 363.9947 L402.8828 378.5793" clip-path="url(#clipPath2)"/>
      <path d="M411.2241 385.7502 L403.1939 369.7805 L401.8401 377.683 L394.2303 380.2072 Z" clip-path="url(#clipPath2)" stroke="none"/>
      <path fill="none" d="M363.5955 447.4612 L378.9175 440.646" clip-path="url(#clipPath2)"/>
      <path fill="none" d="M385.9175 435.8815 L403.5366 419.7336" clip-path="url(#clipPath2)"/>
      <path d="M411.646 412.3013 L394.8368 418.3813 L402.5229 420.6626 L404.1271 428.518 Z" clip-path="url(#clipPath2)" stroke="none"/>
      <path fill="none" d="M439.3956 383.5941 L452.3376 368.4741" clip-path="url(#clipPath2)"/>
      <path fill="none" d="M457.317 361.4741 L467.5692 343.3851" clip-path="url(#clipPath2)"/>
      <path d="M472.993 333.8153 L458.8761 344.7802 L466.8912 344.5814 L470.8384 351.56 Z" clip-path="url(#clipPath2)" stroke="none"/>
      <path fill="none" d="M357.8183 334.3589 L397.5207 284.7487" stroke-width="1" clip-path="url(#clipPath2)" stroke="rgb(102,102,102)"/>
      <path fill="none" d="M402.8832 277.7487 L416.0141 259.8069" stroke-width="1" clip-path="url(#clipPath2)" stroke="rgb(102,102,102)"/>
      <path fill="rgb(102,102,102)" d="M420.7388 253.3511 L409.6169 260.0818 L415.4235 260.6138 L417.6866 265.9877 Z" stroke-width="1" clip-path="url(#clipPath2)" stroke="none"/>
    </g>
    <g text-rendering="geometricPrecision" stroke-miterlimit="1.45" stroke-width="6" shape-rendering="geometricPrecision" transform="matrix(1,0,0,1,-163,-201)" stroke-linecap="butt">
      <path fill="none" d="M216.6764 322.1345 L338.6526 392.4076" clip-path="url(#clipPath2)"/>
      <path fill="none" d="M348.6526 392.4391 L453.8958 332.4698" clip-path="url(#clipPath2)"/>
      <path d="M465.1909 326.0337 L444.2258 328.6284 L452.484 333.2743 L452.2709 342.7472 Z" clip-path="url(#clipPath2)" stroke="none"/>
      <text x="425.288" font-size="20px" y="331.0009" clip-path="url(#clipPath2)" font-family="'Times New Roman'" stroke="none" stroke-width="1" xml:space="preserve">2</text>
    </g>
  </g>
</svg>
