<?xml version="1.0" encoding="UTF-8"?><svg xmlns="http://www.w3.org/2000/svg" xmlns:xlink="http://www.w3.org/1999/xlink" fill-opacity="1" color-rendering="auto" color-interpolation="auto" text-rendering="auto" stroke="black" stroke-linecap="square" width="959" stroke-miterlimit="10" shape-rendering="auto" stroke-opacity="1" fill="black" stroke-dasharray="none" font-weight="normal" stroke-width="1" height="500" font-family="'Dialog'" font-style="normal" stroke-linejoin="miter" font-size="12px" stroke-dashoffset="0" image-rendering="auto">
  <!--Generated by ySVG 2.5-->
  <defs id="genericDefs"/>
  <g>
    <defs id="defs1">
      <clipPath clipPathUnits="userSpaceOnUse" id="clipPath1">
        <path d="M0 0 L959 0 L959 500 L0 500 L0 0 Z"/>
      </clipPath>
      <clipPath clipPathUnits="userSpaceOnUse" id="clipPath2">
        <path d="M-140 -9 L819 -9 L819 491 L-140 491 L-140 -9 Z"/>
      </clipPath>
    </defs>
    <g fill="white" text-rendering="geometricPrecision" shape-rendering="geometricPrecision" transform="translate(140,9)" stroke="white">
      <rect x="-140" width="959" height="500" y="-9" clip-path="url(#clipPath2)" stroke="none"/>
    </g>
    <g fill="white" text-rendering="geometricPrecision" shape-rendering="geometricPrecision" transform="matrix(1,0,0,1,140,9)" stroke="white">
      <path d="M-124.8827 296.7157 L-113.1669 285 L-96.5984 285 L-84.8826 296.7157 L-84.8826 313.2843 L-96.5984 325 L-113.1669 325 L-124.8827 313.2843 Z" fill-rule="evenodd" clip-path="url(#clipPath2)" stroke="none"/>
    </g>
    <g font-size="20px" stroke-linecap="butt" transform="matrix(1,0,0,1,140,9)" text-rendering="geometricPrecision" font-family="'Times New Roman'" shape-rendering="geometricPrecision" stroke-miterlimit="1.45">
      <text x="-114.3211" xml:space="preserve" y="312.1729" clip-path="url(#clipPath2)" stroke="none">e1</text>
      <path fill="none" stroke-dasharray="6,2" d="M-124.8827 296.7157 L-113.1669 285 L-96.5984 285 L-84.8826 296.7157 L-84.8826 313.2843 L-96.5984 325 L-113.1669 325 L-124.8827 313.2843 Z" clip-path="url(#clipPath2)" fill-rule="evenodd"/>
    </g>
    <g fill="yellow" text-rendering="geometricPrecision" shape-rendering="geometricPrecision" transform="matrix(1,0,0,1,140,9)" stroke="yellow">
      <circle r="20" clip-path="url(#clipPath2)" cx="-9.9034" cy="305" stroke="none"/>
    </g>
    <g font-size="20px" stroke-linecap="butt" transform="matrix(1,0,0,1,140,9)" text-rendering="geometricPrecision" font-family="'Times New Roman'" shape-rendering="geometricPrecision" stroke-miterlimit="1.45">
      <text x="-22.6817" xml:space="preserve" y="312.1729" clip-path="url(#clipPath2)" stroke="none">m1</text>
      <circle fill="none" r="20" clip-path="url(#clipPath2)" cx="-9.9034" cy="305"/>
    </g>
    <g fill="yellow" text-rendering="geometricPrecision" shape-rendering="geometricPrecision" transform="matrix(1,0,0,1,140,9)" stroke="yellow">
      <circle r="20" clip-path="url(#clipPath2)" cx="47.8405" cy="242.7487" stroke="none"/>
    </g>
    <g font-size="20px" stroke-linecap="butt" transform="matrix(1,0,0,1,140,9)" text-rendering="geometricPrecision" font-family="'Times New Roman'" shape-rendering="geometricPrecision" stroke-miterlimit="1.45">
      <text x="35.0622" xml:space="preserve" y="249.9215" clip-path="url(#clipPath2)" stroke="none">m2</text>
      <circle fill="none" r="20" clip-path="url(#clipPath2)" cx="47.8405" cy="242.7487"/>
    </g>
    <g fill="yellow" text-rendering="geometricPrecision" shape-rendering="geometricPrecision" transform="matrix(1,0,0,1,140,9)" stroke="yellow">
      <circle r="20" clip-path="url(#clipPath2)" cx="45.6884" cy="375.9116" stroke="none"/>
    </g>
    <g font-size="20px" stroke-linecap="butt" transform="matrix(1,0,0,1,140,9)" text-rendering="geometricPrecision" font-family="'Times New Roman'" shape-rendering="geometricPrecision" stroke-miterlimit="1.45">
      <text x="32.9101" xml:space="preserve" y="383.0845" clip-path="url(#clipPath2)" stroke="none">m3</text>
      <circle fill="none" r="20" clip-path="url(#clipPath2)" cx="45.6884" cy="375.9116"/>
    </g>
    <g fill="yellow" text-rendering="geometricPrecision" shape-rendering="geometricPrecision" transform="matrix(1,0,0,1,140,9)" stroke="yellow">
      <circle r="20" clip-path="url(#clipPath2)" cx="100.4131" cy="311.8005" stroke="none"/>
    </g>
    <g font-size="20px" stroke-linecap="butt" transform="matrix(1,0,0,1,140,9)" text-rendering="geometricPrecision" font-family="'Times New Roman'" shape-rendering="geometricPrecision" stroke-miterlimit="1.45">
      <text x="87.6348" xml:space="preserve" y="318.9733" clip-path="url(#clipPath2)" stroke="none">m4</text>
      <circle fill="none" r="20" clip-path="url(#clipPath2)" cx="100.4131" cy="311.8005"/>
    </g>
    <g fill="yellow" text-rendering="geometricPrecision" shape-rendering="geometricPrecision" transform="matrix(1,0,0,1,140,9)" stroke="yellow">
      <circle r="20" clip-path="url(#clipPath2)" cx="256.8884" cy="197.7487" stroke="none"/>
    </g>
    <g font-size="20px" stroke-linecap="butt" transform="matrix(1,0,0,1,140,9)" text-rendering="geometricPrecision" font-family="'Times New Roman'" shape-rendering="geometricPrecision" stroke-miterlimit="1.45">
      <text x="239.1101" xml:space="preserve" y="204.9215" clip-path="url(#clipPath2)" stroke="none">m11</text>
      <circle fill="none" r="20" clip-path="url(#clipPath2)" cx="256.8884" cy="197.7487"/>
    </g>
    <g fill="yellow" text-rendering="geometricPrecision" shape-rendering="geometricPrecision" transform="matrix(1,0,0,1,140,9)" stroke="yellow">
      <circle r="20" clip-path="url(#clipPath2)" cx="407.8447" cy="190.7487" stroke="none"/>
    </g>
    <g font-size="20px" stroke-linecap="butt" transform="matrix(1,0,0,1,140,9)" text-rendering="geometricPrecision" font-family="'Times New Roman'" shape-rendering="geometricPrecision" stroke-miterlimit="1.45">
      <text x="390.0663" xml:space="preserve" y="197.9215" clip-path="url(#clipPath2)" stroke="none">m13</text>
      <circle fill="none" r="20" clip-path="url(#clipPath2)" cx="407.8447" cy="190.7487"/>
    </g>
    <g fill="yellow" text-rendering="geometricPrecision" shape-rendering="geometricPrecision" transform="matrix(1,0,0,1,140,9)" stroke="yellow">
      <circle r="20" clip-path="url(#clipPath2)" cx="326.8884" cy="129.476" stroke="none"/>
    </g>
    <g font-size="20px" stroke-linecap="butt" transform="matrix(1,0,0,1,140,9)" text-rendering="geometricPrecision" font-family="'Times New Roman'" shape-rendering="geometricPrecision" stroke-miterlimit="1.45">
      <text x="309.1101" xml:space="preserve" y="136.6488" clip-path="url(#clipPath2)" stroke="none">m14</text>
      <circle fill="none" r="20" clip-path="url(#clipPath2)" cx="326.8884" cy="129.476"/>
    </g>
    <g fill="yellow" text-rendering="geometricPrecision" shape-rendering="geometricPrecision" transform="matrix(1,0,0,1,140,9)" stroke="yellow">
      <circle r="20" clip-path="url(#clipPath2)" cx="332.3665" cy="242.7487" stroke="none"/>
    </g>
    <g font-size="20px" stroke-linecap="butt" transform="matrix(1,0,0,1,140,9)" text-rendering="geometricPrecision" font-family="'Times New Roman'" shape-rendering="geometricPrecision" stroke-miterlimit="1.45">
      <text x="314.5882" xml:space="preserve" y="249.9215" clip-path="url(#clipPath2)" stroke="none">m12</text>
      <circle fill="none" r="20" clip-path="url(#clipPath2)" cx="332.3665" cy="242.7487"/>
    </g>
    <g fill="yellow" text-rendering="geometricPrecision" shape-rendering="geometricPrecision" transform="matrix(1,0,0,1,140,9)" stroke="yellow">
      <circle r="20" clip-path="url(#clipPath2)" cx="345.3217" cy="349.9741" stroke="none"/>
    </g>
    <g font-size="20px" stroke-linecap="butt" transform="matrix(1,0,0,1,140,9)" text-rendering="geometricPrecision" font-family="'Times New Roman'" shape-rendering="geometricPrecision" stroke-miterlimit="1.45">
      <text x="332.5433" xml:space="preserve" y="357.147" clip-path="url(#clipPath2)" stroke="none">m7</text>
      <circle fill="none" r="20" clip-path="url(#clipPath2)" cx="345.3217" cy="349.9741"/>
    </g>
    <g fill="yellow" text-rendering="geometricPrecision" shape-rendering="geometricPrecision" transform="matrix(1,0,0,1,140,9)" stroke="yellow">
      <circle r="20" clip-path="url(#clipPath2)" cx="260.9148" cy="410.2882" stroke="none"/>
    </g>
    <g font-size="20px" stroke-linecap="butt" transform="matrix(1,0,0,1,140,9)" text-rendering="geometricPrecision" font-family="'Times New Roman'" shape-rendering="geometricPrecision" stroke-miterlimit="1.45">
      <text x="248.1365" xml:space="preserve" y="417.461" clip-path="url(#clipPath2)" stroke="none">m6</text>
      <circle fill="none" r="20" clip-path="url(#clipPath2)" cx="260.9148" cy="410.2882"/>
    </g>
    <g fill="yellow" text-rendering="geometricPrecision" shape-rendering="geometricPrecision" transform="matrix(1,0,0,1,140,9)" stroke="yellow">
      <circle r="20" clip-path="url(#clipPath2)" cx="426.3902" cy="398.7882" stroke="none"/>
    </g>
    <g font-size="20px" stroke-linecap="butt" transform="matrix(1,0,0,1,140,9)" text-rendering="geometricPrecision" font-family="'Times New Roman'" shape-rendering="geometricPrecision" stroke-miterlimit="1.45">
      <text x="413.6119" xml:space="preserve" y="405.961" clip-path="url(#clipPath2)" stroke="none">m9</text>
      <circle fill="none" r="20" clip-path="url(#clipPath2)" cx="426.3902" cy="398.7882"/>
    </g>
    <g fill="yellow" text-rendering="geometricPrecision" shape-rendering="geometricPrecision" transform="matrix(1,0,0,1,140,9)" stroke="yellow">
      <circle r="20" clip-path="url(#clipPath2)" cx="345.3217" cy="455.5892" stroke="none"/>
    </g>
    <g font-size="20px" stroke-linecap="butt" transform="matrix(1,0,0,1,140,9)" text-rendering="geometricPrecision" font-family="'Times New Roman'" shape-rendering="geometricPrecision" stroke-miterlimit="1.45">
      <text x="332.5433" xml:space="preserve" y="462.7621" clip-path="url(#clipPath2)" stroke="none">m8</text>
      <circle fill="none" r="20" clip-path="url(#clipPath2)" cx="345.3217" cy="455.5892"/>
    </g>
    <g fill="yellow" text-rendering="geometricPrecision" shape-rendering="geometricPrecision" transform="matrix(1,0,0,1,140,9)" stroke="yellow">
      <circle r="20" clip-path="url(#clipPath2)" cx="578.0263" cy="315.7555" stroke="none"/>
    </g>
    <g font-size="20px" stroke-linecap="butt" transform="matrix(1,0,0,1,140,9)" text-rendering="geometricPrecision" font-family="'Times New Roman'" shape-rendering="geometricPrecision" stroke-miterlimit="1.45">
      <text x="560.248" xml:space="preserve" y="322.9284" clip-path="url(#clipPath2)" stroke="none">m18</text>
      <circle fill="none" r="20" clip-path="url(#clipPath2)" cx="578.0263" cy="315.7555"/>
    </g>
    <g fill="yellow" text-rendering="geometricPrecision" shape-rendering="geometricPrecision" transform="matrix(1,0,0,1,140,9)" stroke="yellow">
      <circle r="20" clip-path="url(#clipPath2)" cx="638.0263" cy="244.2555" stroke="none"/>
    </g>
    <g font-size="20px" stroke-linecap="butt" transform="matrix(1,0,0,1,140,9)" text-rendering="geometricPrecision" font-family="'Times New Roman'" shape-rendering="geometricPrecision" stroke-miterlimit="1.45">
      <text x="620.248" xml:space="preserve" y="251.4284" clip-path="url(#clipPath2)" stroke="none">m19</text>
      <circle fill="none" r="20" clip-path="url(#clipPath2)" cx="638.0263" cy="244.2555"/>
    </g>
    <g fill="yellow" text-rendering="geometricPrecision" shape-rendering="geometricPrecision" transform="matrix(1,0,0,1,140,9)" stroke="yellow">
      <circle r="20" clip-path="url(#clipPath2)" cx="638.0263" cy="385.7555" stroke="none"/>
    </g>
    <g font-size="20px" stroke-linecap="butt" transform="matrix(1,0,0,1,140,9)" text-rendering="geometricPrecision" font-family="'Times New Roman'" shape-rendering="geometricPrecision" stroke-miterlimit="1.45">
      <text x="620.248" xml:space="preserve" y="392.9284" clip-path="url(#clipPath2)" stroke="none">m20</text>
      <circle fill="none" r="20" clip-path="url(#clipPath2)" cx="638.0263" cy="385.7555"/>
    </g>
    <g fill="yellow" text-rendering="geometricPrecision" shape-rendering="geometricPrecision" transform="matrix(1,0,0,1,140,9)" stroke="yellow">
      <circle r="20" clip-path="url(#clipPath2)" cx="695.4948" cy="309.0772" stroke="none"/>
    </g>
    <g font-size="20px" stroke-linecap="butt" transform="matrix(1,0,0,1,140,9)" text-rendering="geometricPrecision" font-family="'Times New Roman'" shape-rendering="geometricPrecision" stroke-miterlimit="1.45">
      <text x="677.7165" xml:space="preserve" y="316.2501" clip-path="url(#clipPath2)" stroke="none">m21</text>
      <circle fill="none" r="20" clip-path="url(#clipPath2)" cx="695.4948" cy="309.0772"/>
    </g>
    <g fill="white" text-rendering="geometricPrecision" shape-rendering="geometricPrecision" transform="matrix(1,0,0,1,140,9)" stroke="white">
      <path d="M763.4038 296.7158 L775.1195 285 L791.688 285 L803.4037 296.7158 L803.4037 313.2843 L791.688 325 L775.1195 325 L763.4038 313.2843 Z" fill-rule="evenodd" clip-path="url(#clipPath2)" stroke="none"/>
    </g>
    <g font-size="20px" stroke-linecap="butt" transform="matrix(1,0,0,1,140,9)" text-rendering="geometricPrecision" font-family="'Times New Roman'" shape-rendering="geometricPrecision" stroke-miterlimit="1.45">
      <text x="773.9659" xml:space="preserve" y="312.1729" clip-path="url(#clipPath2)" stroke="none">e3</text>
      <path fill="none" stroke-dasharray="6,2" d="M763.4038 296.7158 L775.1195 285 L791.688 285 L803.4037 296.7158 L803.4037 313.2843 L791.688 325 L775.1195 325 L763.4038 313.2843 Z" clip-path="url(#clipPath2)" fill-rule="evenodd"/>
    </g>
    <g fill="white" text-rendering="geometricPrecision" shape-rendering="geometricPrecision" transform="matrix(1,0,0,1,140,9)" stroke="white">
      <path d="M306.8881 18.2896 L318.6038 6.5739 L335.1724 6.5739 L346.8881 18.2896 L346.8881 34.8582 L335.1724 46.5739 L318.6038 46.5739 L306.8881 34.8582 Z" fill-rule="evenodd" clip-path="url(#clipPath2)" stroke="none"/>
    </g>
    <g font-size="20px" stroke-linecap="butt" transform="matrix(1,0,0,1,140,9)" text-rendering="geometricPrecision" font-family="'Times New Roman'" shape-rendering="geometricPrecision" stroke-miterlimit="1.45">
      <text x="317.45" xml:space="preserve" y="33.7467" clip-path="url(#clipPath2)" stroke="none">e2</text>
      <path fill="none" stroke-dasharray="6,2" d="M306.8881 18.2896 L318.6038 6.5739 L335.1724 6.5739 L346.8881 18.2896 L346.8881 34.8582 L335.1724 46.5739 L318.6038 46.5739 L306.8881 34.8582 Z" clip-path="url(#clipPath2)" fill-rule="evenodd"/>
    </g>
    <g fill="yellow" text-rendering="geometricPrecision" shape-rendering="geometricPrecision" transform="matrix(1,0,0,1,140,9)" stroke="yellow">
      <circle r="20" clip-path="url(#clipPath2)" cx="198.7391" cy="311.8005" stroke="none"/>
    </g>
    <g font-size="20px" stroke-linecap="butt" transform="matrix(1,0,0,1,140,9)" text-rendering="geometricPrecision" font-family="'Times New Roman'" shape-rendering="geometricPrecision" stroke-miterlimit="1.45">
      <text x="185.9608" xml:space="preserve" y="318.9733" clip-path="url(#clipPath2)" stroke="none">m5</text>
      <circle fill="none" r="20" clip-path="url(#clipPath2)" cx="198.7391" cy="311.8005"/>
    </g>
    <g text-rendering="geometricPrecision" shape-rendering="geometricPrecision" transform="matrix(1,0,0,1,140,9)">
      <rect x="368.3291" width="7" height="7" y="149.476" clip-path="url(#clipPath2)" stroke="none"/>
    </g>
    <g font-size="20px" stroke-linecap="butt" transform="matrix(1,0,0,1,140,9)" text-rendering="geometricPrecision" font-family="'Times New Roman'" shape-rendering="geometricPrecision" stroke-miterlimit="1.45">
      <text x="381.3291" xml:space="preserve" y="141.3597" clip-path="url(#clipPath2)" stroke="none">r11</text>
      <rect fill="none" x="368.3291" width="7" height="7" y="149.476" clip-path="url(#clipPath2)"/>
    </g>
    <g text-rendering="geometricPrecision" shape-rendering="geometricPrecision" transform="matrix(1,0,0,1,140,9)">
      <rect x="-68.4034" width="7" height="7" y="301.5" clip-path="url(#clipPath2)" stroke="none"/>
    </g>
    <g font-size="20px" stroke-linecap="butt" transform="matrix(1,0,0,1,140,9)" text-rendering="geometricPrecision" font-family="'Times New Roman'" shape-rendering="geometricPrecision" stroke-miterlimit="1.45">
      <text x="-74.0665" xml:space="preserve" y="289.3838" clip-path="url(#clipPath2)" stroke="none">r1</text>
      <rect fill="none" x="-68.4034" width="7" height="7" y="301.5" clip-path="url(#clipPath2)"/>
    </g>
    <g text-rendering="geometricPrecision" shape-rendering="geometricPrecision" transform="matrix(1,0,0,1,140,9)">
      <rect x="3.0966" width="7" height="7" y="267.9537" clip-path="url(#clipPath2)" stroke="none"/>
    </g>
    <g font-size="20px" stroke-linecap="butt" transform="matrix(1,0,0,1,140,9)" text-rendering="geometricPrecision" font-family="'Times New Roman'" shape-rendering="geometricPrecision" stroke-miterlimit="1.45">
      <text x="-21.2295" xml:space="preserve" y="262.8374" clip-path="url(#clipPath2)" stroke="none">r2</text>
      <rect fill="none" x="3.0966" width="7" height="7" y="267.9537" clip-path="url(#clipPath2)"/>
    </g>
    <g text-rendering="geometricPrecision" shape-rendering="geometricPrecision" transform="matrix(1,0,0,1,140,9)">
      <rect x="3.0966" width="7" height="7" y="335.0463" clip-path="url(#clipPath2)" stroke="none"/>
    </g>
    <g font-size="20px" stroke-linecap="butt" transform="matrix(1,0,0,1,140,9)" text-rendering="geometricPrecision" font-family="'Times New Roman'" shape-rendering="geometricPrecision" stroke-miterlimit="1.45">
      <text x="-21.2295" xml:space="preserve" y="362.2934" clip-path="url(#clipPath2)" stroke="none">r4</text>
      <rect fill="none" x="3.0966" width="7" height="7" y="335.0463" clip-path="url(#clipPath2)"/>
    </g>
    <g text-rendering="geometricPrecision" shape-rendering="geometricPrecision" transform="matrix(1,0,0,1,140,9)">
      <rect x="67.1884" width="7" height="7" y="346.4741" clip-path="url(#clipPath2)" stroke="none"/>
    </g>
    <g font-size="20px" stroke-linecap="butt" transform="matrix(1,0,0,1,140,9)" text-rendering="geometricPrecision" font-family="'Times New Roman'" shape-rendering="geometricPrecision" stroke-miterlimit="1.45">
      <text x="80.1884" xml:space="preserve" y="373.7212" clip-path="url(#clipPath2)" stroke="none">r5</text>
      <rect fill="none" x="67.1884" width="7" height="7" y="346.4741" clip-path="url(#clipPath2)"/>
    </g>
    <g text-rendering="geometricPrecision" shape-rendering="geometricPrecision" transform="matrix(1,0,0,1,140,9)">
      <rect x="71.9131" width="7" height="7" y="264.2487" clip-path="url(#clipPath2)" stroke="none"/>
    </g>
    <g font-size="20px" stroke-linecap="butt" transform="matrix(1,0,0,1,140,9)" text-rendering="geometricPrecision" font-family="'Times New Roman'" shape-rendering="geometricPrecision" stroke-miterlimit="1.45">
      <text x="84.9131" xml:space="preserve" y="259.1325" clip-path="url(#clipPath2)" stroke="none">r3</text>
      <rect fill="none" x="71.9131" width="7" height="7" y="264.2487" clip-path="url(#clipPath2)"/>
    </g>
    <g text-rendering="geometricPrecision" shape-rendering="geometricPrecision" transform="matrix(1,0,0,1,140,9)">
      <rect x="141.7391" width="7" height="7" y="308.3005" clip-path="url(#clipPath2)" stroke="none"/>
    </g>
    <g font-size="20px" stroke-linecap="butt" transform="matrix(1,0,0,1,140,9)" text-rendering="geometricPrecision" font-family="'Times New Roman'" shape-rendering="geometricPrecision" stroke-miterlimit="1.45">
      <text x="136.076" xml:space="preserve" y="300.1842" clip-path="url(#clipPath2)" stroke="none">r6</text>
      <rect fill="none" x="141.7391" width="7" height="7" y="308.3005" clip-path="url(#clipPath2)"/>
    </g>
    <g text-rendering="geometricPrecision" shape-rendering="geometricPrecision" transform="matrix(1,0,0,1,140,9)">
      <rect x="210.2391" width="7" height="7" y="253.3005" clip-path="url(#clipPath2)" stroke="none"/>
    </g>
    <g font-size="20px" stroke-linecap="butt" transform="matrix(1,0,0,1,140,9)" text-rendering="geometricPrecision" font-family="'Times New Roman'" shape-rendering="geometricPrecision" stroke-miterlimit="1.45">
      <text x="192.913" xml:space="preserve" y="248.1842" clip-path="url(#clipPath2)" stroke="none">r7</text>
      <rect fill="none" x="210.2391" width="7" height="7" y="253.3005" clip-path="url(#clipPath2)"/>
    </g>
    <g text-rendering="geometricPrecision" shape-rendering="geometricPrecision" transform="matrix(1,0,0,1,140,9)">
      <rect x="203.9148" width="7" height="7" y="361.4741" clip-path="url(#clipPath2)" stroke="none"/>
    </g>
    <g font-size="20px" stroke-linecap="butt" transform="matrix(1,0,0,1,140,9)" text-rendering="geometricPrecision" font-family="'Times New Roman'" shape-rendering="geometricPrecision" stroke-miterlimit="1.45">
      <text x="216.9148" xml:space="preserve" y="362.4069" clip-path="url(#clipPath2)" stroke="none">r9</text>
      <rect fill="none" x="203.9148" width="7" height="7" y="361.4741" clip-path="url(#clipPath2)"/>
    </g>
    <g text-rendering="geometricPrecision" shape-rendering="geometricPrecision" transform="matrix(1,0,0,1,140,9)">
      <rect x="279.4908" width="7" height="7" y="220.1232" clip-path="url(#clipPath2)" stroke="none"/>
    </g>
    <g font-size="20px" stroke-linecap="butt" transform="matrix(1,0,0,1,140,9)" text-rendering="geometricPrecision" font-family="'Times New Roman'" shape-rendering="geometricPrecision" stroke-miterlimit="1.45">
      <text x="281.7837" xml:space="preserve" y="215.007" clip-path="url(#clipPath2)" stroke="none">r12</text>
      <rect fill="none" x="279.4908" width="7" height="7" y="220.1232" clip-path="url(#clipPath2)"/>
    </g>
    <g text-rendering="geometricPrecision" shape-rendering="geometricPrecision" transform="matrix(1,0,0,1,140,9)">
      <rect x="368.3291" width="7" height="7" y="226.541" clip-path="url(#clipPath2)" stroke="none"/>
    </g>
    <g font-size="20px" stroke-linecap="butt" transform="matrix(1,0,0,1,140,9)" text-rendering="geometricPrecision" font-family="'Times New Roman'" shape-rendering="geometricPrecision" stroke-miterlimit="1.45">
      <text x="349.2428" xml:space="preserve" y="221.4248" clip-path="url(#clipPath2)" stroke="none">r13</text>
      <rect fill="none" x="368.3291" width="7" height="7" y="226.541" clip-path="url(#clipPath2)"/>
    </g>
    <g text-rendering="geometricPrecision" shape-rendering="geometricPrecision" transform="matrix(1,0,0,1,140,9)">
      <rect x="323.3884" width="7" height="7" y="71.3971" clip-path="url(#clipPath2)" stroke="none"/>
    </g>
    <g font-size="20px" stroke-linecap="butt" transform="matrix(1,0,0,1,140,9)" text-rendering="geometricPrecision" font-family="'Times New Roman'" shape-rendering="geometricPrecision" stroke-miterlimit="1.45">
      <text x="336.3884" xml:space="preserve" y="77.4625" clip-path="url(#clipPath2)" stroke="none">r10</text>
      <rect fill="none" x="323.3884" width="7" height="7" y="71.3971" clip-path="url(#clipPath2)"/>
    </g>
    <g text-rendering="geometricPrecision" shape-rendering="geometricPrecision" transform="matrix(1,0,0,1,140,9)">
      <rect x="457.8447" width="7" height="7" y="191.2487" clip-path="url(#clipPath2)" stroke="none"/>
    </g>
    <g font-size="20px" stroke-linecap="butt" transform="matrix(1,0,0,1,140,9)" text-rendering="geometricPrecision" font-family="'Times New Roman'" shape-rendering="geometricPrecision" stroke-miterlimit="1.45">
      <text x="470.8447" xml:space="preserve" y="183.1325" clip-path="url(#clipPath2)" stroke="none">r14</text>
      <rect fill="none" x="457.8447" width="7" height="7" y="191.2487" clip-path="url(#clipPath2)"/>
    </g>
    <g fill="yellow" text-rendering="geometricPrecision" shape-rendering="geometricPrecision" transform="matrix(1,0,0,1,140,9)" stroke="yellow">
      <circle r="20" clip-path="url(#clipPath2)" cx="530.2824" cy="211.2487" stroke="none"/>
    </g>
    <g font-size="20px" stroke-linecap="butt" transform="matrix(1,0,0,1,140,9)" text-rendering="geometricPrecision" font-family="'Times New Roman'" shape-rendering="geometricPrecision" stroke-miterlimit="1.45">
      <text x="512.5041" xml:space="preserve" y="218.4215" clip-path="url(#clipPath2)" stroke="none">m17</text>
      <circle fill="none" r="20" clip-path="url(#clipPath2)" cx="530.2824" cy="211.2487"/>
    </g>
    <g fill="yellow" text-rendering="geometricPrecision" shape-rendering="geometricPrecision" transform="matrix(1,0,0,1,140,9)" stroke="yellow">
      <circle r="20" clip-path="url(#clipPath2)" cx="483.2285" cy="315.7555" stroke="none"/>
    </g>
    <g font-size="20px" stroke-linecap="butt" transform="matrix(1,0,0,1,140,9)" text-rendering="geometricPrecision" font-family="'Times New Roman'" shape-rendering="geometricPrecision" stroke-miterlimit="1.45">
      <text x="465.4502" xml:space="preserve" y="322.9284" clip-path="url(#clipPath2)" stroke="none">m10</text>
      <circle fill="none" r="20" clip-path="url(#clipPath2)" cx="483.2285" cy="315.7555"/>
    </g>
    <g text-rendering="geometricPrecision" shape-rendering="geometricPrecision" transform="matrix(1,0,0,1,140,9)">
      <rect x="253.3884" width="7" height="7" y="308.3005" clip-path="url(#clipPath2)" stroke="none"/>
    </g>
    <g font-size="20px" stroke-linecap="butt" transform="matrix(1,0,0,1,140,9)" text-rendering="geometricPrecision" font-family="'Times New Roman'" shape-rendering="geometricPrecision" stroke-miterlimit="1.45">
      <text x="266.3884" xml:space="preserve" y="300.1842" clip-path="url(#clipPath2)" stroke="none">r8</text>
      <rect fill="none" x="253.3884" width="7" height="7" y="308.3005" clip-path="url(#clipPath2)"/>
    </g>
    <g text-rendering="geometricPrecision" shape-rendering="geometricPrecision" transform="matrix(1,0,0,1,140,9)">
      <rect x="568.1265" width="7" height="7" y="215.7555" clip-path="url(#clipPath2)" stroke="none"/>
    </g>
    <g font-size="20px" stroke-linecap="butt" transform="matrix(1,0,0,1,140,9)" text-rendering="geometricPrecision" font-family="'Times New Roman'" shape-rendering="geometricPrecision" stroke-miterlimit="1.45">
      <text x="581.1265" xml:space="preserve" y="207.6393" clip-path="url(#clipPath2)" stroke="none">r21</text>
      <rect fill="none" x="568.1265" width="7" height="7" y="215.7555" clip-path="url(#clipPath2)"/>
    </g>
    <g text-rendering="geometricPrecision" shape-rendering="geometricPrecision" transform="matrix(1,0,0,1,140,9)">
      <rect x="598.0263" width="7" height="7" y="277.7487" clip-path="url(#clipPath2)" stroke="none"/>
    </g>
    <g font-size="20px" stroke-linecap="butt" transform="matrix(1,0,0,1,140,9)" text-rendering="geometricPrecision" font-family="'Times New Roman'" shape-rendering="geometricPrecision" stroke-miterlimit="1.45">
      <text x="611.0263" xml:space="preserve" y="304.9958" clip-path="url(#clipPath2)" stroke="none">r22</text>
      <rect fill="none" x="598.0263" width="7" height="7" y="277.7487" clip-path="url(#clipPath2)"/>
    </g>
    <g text-rendering="geometricPrecision" shape-rendering="geometricPrecision" transform="matrix(1,0,0,1,140,9)">
      <rect x="598.0263" width="7" height="7" y="346.4741" clip-path="url(#clipPath2)" stroke="none"/>
    </g>
    <g font-size="20px" stroke-linecap="butt" transform="matrix(1,0,0,1,140,9)" text-rendering="geometricPrecision" font-family="'Times New Roman'" shape-rendering="geometricPrecision" stroke-miterlimit="1.45">
      <text x="611.0263" xml:space="preserve" y="338.3579" clip-path="url(#clipPath2)" stroke="none">r24</text>
      <rect fill="none" x="598.0263" width="7" height="7" y="346.4741" clip-path="url(#clipPath2)"/>
    </g>
    <g text-rendering="geometricPrecision" shape-rendering="geometricPrecision" transform="matrix(1,0,0,1,140,9)">
      <rect x="662.4775" width="7" height="7" y="264.2555" clip-path="url(#clipPath2)" stroke="none"/>
    </g>
    <g font-size="20px" stroke-linecap="butt" transform="matrix(1,0,0,1,140,9)" text-rendering="geometricPrecision" font-family="'Times New Roman'" shape-rendering="geometricPrecision" stroke-miterlimit="1.45">
      <text x="675.4775" xml:space="preserve" y="256.1393" clip-path="url(#clipPath2)" stroke="none">r23</text>
      <rect fill="none" x="662.4775" width="7" height="7" y="264.2555" clip-path="url(#clipPath2)"/>
    </g>
    <g text-rendering="geometricPrecision" shape-rendering="geometricPrecision" transform="matrix(1,0,0,1,140,9)">
      <rect x="662.4775" width="7" height="7" y="354.6884" clip-path="url(#clipPath2)" stroke="none"/>
    </g>
    <g font-size="20px" stroke-linecap="butt" transform="matrix(1,0,0,1,140,9)" text-rendering="geometricPrecision" font-family="'Times New Roman'" shape-rendering="geometricPrecision" stroke-miterlimit="1.45">
      <text x="675.4775" xml:space="preserve" y="381.9354" clip-path="url(#clipPath2)" stroke="none">r25</text>
      <rect fill="none" x="662.4775" width="7" height="7" y="354.6884" clip-path="url(#clipPath2)"/>
    </g>
    <g text-rendering="geometricPrecision" shape-rendering="geometricPrecision" transform="matrix(1,0,0,1,140,9)">
      <rect x="724.9044" width="7" height="7" y="301.5" clip-path="url(#clipPath2)" stroke="none"/>
    </g>
    <g font-size="20px" stroke-linecap="butt" transform="matrix(1,0,0,1,140,9)" text-rendering="geometricPrecision" font-family="'Times New Roman'" shape-rendering="geometricPrecision" stroke-miterlimit="1.45">
      <text x="713.7413" xml:space="preserve" y="289.3838" clip-path="url(#clipPath2)" stroke="none">r26</text>
      <rect fill="none" x="724.9044" width="7" height="7" y="301.5" clip-path="url(#clipPath2)"/>
    </g>
    <g text-rendering="geometricPrecision" shape-rendering="geometricPrecision" transform="matrix(1,0,0,1,140,9)">
      <rect x="288.3217" width="7" height="7" y="378.7882" clip-path="url(#clipPath2)" stroke="none"/>
    </g>
    <g font-size="20px" stroke-linecap="butt" transform="matrix(1,0,0,1,140,9)" text-rendering="geometricPrecision" font-family="'Times New Roman'" shape-rendering="geometricPrecision" stroke-miterlimit="1.45">
      <text x="259.9955" xml:space="preserve" y="373.672" clip-path="url(#clipPath2)" stroke="none">r16</text>
      <rect fill="none" x="288.3217" width="7" height="7" y="378.7882" clip-path="url(#clipPath2)"/>
    </g>
    <g text-rendering="geometricPrecision" shape-rendering="geometricPrecision" transform="matrix(1,0,0,1,140,9)">
      <rect x="378.9175" width="7" height="7" y="357.4858" clip-path="url(#clipPath2)" stroke="none"/>
    </g>
    <g font-size="20px" stroke-linecap="butt" transform="matrix(1,0,0,1,140,9)" text-rendering="geometricPrecision" font-family="'Times New Roman'" shape-rendering="geometricPrecision" stroke-miterlimit="1.45">
      <text x="384.9175" xml:space="preserve" y="352.3696" clip-path="url(#clipPath2)" stroke="none">r17</text>
      <rect fill="none" x="378.9175" width="7" height="7" y="357.4858" clip-path="url(#clipPath2)"/>
    </g>
    <g text-rendering="geometricPrecision" shape-rendering="geometricPrecision" transform="matrix(1,0,0,1,140,9)">
      <rect x="378.9175" width="7" height="7" y="435.5892" clip-path="url(#clipPath2)" stroke="none"/>
    </g>
    <g font-size="20px" stroke-linecap="butt" transform="matrix(1,0,0,1,140,9)" text-rendering="geometricPrecision" font-family="'Times New Roman'" shape-rendering="geometricPrecision" stroke-miterlimit="1.45">
      <text x="384.9175" xml:space="preserve" y="456.8268" clip-path="url(#clipPath2)" stroke="none">r18</text>
      <rect fill="none" x="378.9175" width="7" height="7" y="435.5892" clip-path="url(#clipPath2)"/>
    </g>
    <g text-rendering="geometricPrecision" shape-rendering="geometricPrecision" transform="matrix(1,0,0,1,140,9)">
      <rect x="451.8334" width="7" height="7" y="361.4741" clip-path="url(#clipPath2)" stroke="none"/>
    </g>
    <g font-size="20px" stroke-linecap="butt" transform="matrix(1,0,0,1,140,9)" text-rendering="geometricPrecision" font-family="'Times New Roman'" shape-rendering="geometricPrecision" stroke-miterlimit="1.45">
      <text x="457.8334" xml:space="preserve" y="380.1279" clip-path="url(#clipPath2)" stroke="none">r19</text>
      <rect fill="none" x="451.8334" width="7" height="7" y="361.4741" clip-path="url(#clipPath2)"/>
    </g>
    <g text-rendering="geometricPrecision" shape-rendering="geometricPrecision" transform="matrix(1,0,0,1,140,9)">
      <rect x="521.0263" width="7" height="7" y="312.2555" clip-path="url(#clipPath2)" stroke="none"/>
    </g>
    <g font-size="20px" stroke-linecap="butt" transform="matrix(1,0,0,1,140,9)" text-rendering="geometricPrecision" font-family="'Times New Roman'" shape-rendering="geometricPrecision" stroke-miterlimit="1.45">
      <text x="509.8633" xml:space="preserve" y="300.1393" clip-path="url(#clipPath2)" stroke="none">r20</text>
      <rect fill="none" x="521.0263" width="7" height="7" y="312.2555" clip-path="url(#clipPath2)"/>
    </g>
    <g fill="yellow" text-rendering="geometricPrecision" shape-rendering="geometricPrecision" transform="matrix(1,0,0,1,140,9)" stroke="yellow">
      <circle r="20" clip-path="url(#clipPath2)" cx="432.7105" cy="236.9932" stroke="none"/>
    </g>
    <g font-size="20px" stroke-linecap="butt" transform="matrix(1,0,0,1,140,9)" text-rendering="geometricPrecision" font-family="'Times New Roman'" shape-rendering="geometricPrecision" stroke-miterlimit="1.45">
      <text x="414.9322" xml:space="preserve" y="244.166" clip-path="url(#clipPath2)" stroke="none">m16</text>
      <circle fill="none" r="20" clip-path="url(#clipPath2)" cx="432.7105" cy="236.9932"/>
    </g>
    <g text-rendering="geometricPrecision" shape-rendering="geometricPrecision" transform="matrix(1,0,0,1,140,9)">
      <rect x="396.8217" width="7" height="7" y="277.7487" clip-path="url(#clipPath2)" stroke="none"/>
    </g>
    <g font-size="20px" stroke-linecap="butt" transform="matrix(1,0,0,1,140,9)" text-rendering="geometricPrecision" font-family="'Times New Roman'" shape-rendering="geometricPrecision" stroke-miterlimit="1.45">
      <text x="409.8217" xml:space="preserve" y="290.8141" clip-path="url(#clipPath2)" stroke="none">r15</text>
      <rect fill="none" x="396.8217" width="7" height="7" y="277.7487" clip-path="url(#clipPath2)"/>
      <path fill="none" d="M344.6116 138.7436 L368.3291 151.1458" stroke-width="3" clip-path="url(#clipPath2)"/>
      <path fill="none" d="M275.5245 190.4894 L368.3291 154.3393" stroke-width="3" clip-path="url(#clipPath2)"/>
      <path fill="none" d="M375.1663 156.476 L387.1425 169.0365" stroke-width="3" clip-path="url(#clipPath2)"/>
      <path d="M394.0432 176.2739 L388.2155 161.1048 L386.2799 168.1318 L379.1688 169.7307 Z" stroke-width="3" clip-path="url(#clipPath2)" stroke="none"/>
      <path fill="none" d="M-84.854 305 L-68.4034 305" stroke-width="3" clip-path="url(#clipPath2)"/>
      <path fill="none" d="M-61.4034 305 L-39.9034 305" stroke-width="3" clip-path="url(#clipPath2)"/>
      <path d="M-29.9034 305 L-44.9034 298.75 L-41.1534 305 L-44.9034 311.25 Z" stroke-width="3" clip-path="url(#clipPath2)" stroke="none"/>
      <path fill="none" d="M-1.0762 287.0534 L4.8751 274.9536" stroke-width="3" clip-path="url(#clipPath2)"/>
      <path fill="none" d="M10.0966 269.0177 L23.2172 259.8861" stroke-width="3" clip-path="url(#clipPath2)"/>
      <path d="M31.4249 254.1736 L15.543 257.6125 L22.1912 260.6001 L22.6835 267.8722 Z" stroke-width="3" clip-path="url(#clipPath2)" stroke="none"/>
      <path fill="none" d="M-1.0762 322.9466 L4.8751 335.0464" stroke-width="3" clip-path="url(#clipPath2)"/>
      <path fill="none" d="M10.0966 341.8918 L24.0017 355.1827" stroke-width="3" clip-path="url(#clipPath2)"/>
      <path d="M31.2306 362.0923 L24.7058 347.2098 L23.0981 354.319 L16.0687 356.2459 Z" stroke-width="3" clip-path="url(#clipPath2)" stroke="none"/>
      <path fill="none" d="M59.5679 361.5116 L67.3149 353.4741" stroke-width="3" clip-path="url(#clipPath2)"/>
      <path fill="none" d="M73.4137 346.4741 L81.9817 335.4708" stroke-width="3" clip-path="url(#clipPath2)"/>
      <path d="M88.1255 327.5807 L73.9785 335.5759 L81.2137 336.457 L83.8411 343.2557 Z" stroke-width="3" clip-path="url(#clipPath2)" stroke="none"/>
      <path fill="none" d="M62.657 256.1827 L71.9131 264.5753" stroke-width="3" clip-path="url(#clipPath2)"/>
      <path fill="none" d="M77.3994 271.2487 L85.606 285.7093" stroke-width="3" clip-path="url(#clipPath2)"/>
      <path d="M90.5417 294.4063 L88.5738 278.2759 L84.989 284.6222 L77.7025 284.4456 Z" stroke-width="3" clip-path="url(#clipPath2)" stroke="none"/>
      <path fill="none" d="M120.4131 311.8004 L141.7391 311.8004" stroke-width="3" clip-path="url(#clipPath2)"/>
      <path fill="none" d="M148.7391 311.8004 L168.7391 311.8004" stroke-width="3" clip-path="url(#clipPath2)"/>
      <path d="M178.7391 311.8004 L163.7391 305.5504 L167.4891 311.8004 L163.7391 318.0504 Z" stroke-width="3" clip-path="url(#clipPath2)" stroke="none"/>
      <path fill="none" d="M204.0015 292.5052 L212.7846 260.3004" stroke-width="3" clip-path="url(#clipPath2)"/>
      <path fill="none" d="M216.2966 253.3005 L239.189 221.9712" stroke-width="3" clip-path="url(#clipPath2)"/>
      <path d="M245.0888 213.897 L231.1927 222.3209 L238.4515 222.9805 L241.2854 229.6957 Z" stroke-width="3" clip-path="url(#clipPath2)" stroke="none"/>
      <path fill="none" d="M201.9597 331.5395 L206.8438 361.4741" stroke-width="3" clip-path="url(#clipPath2)"/>
      <path fill="none" d="M210.9148 367.9386 L238.0227 390.8987" stroke-width="3" clip-path="url(#clipPath2)"/>
      <path d="M245.6534 397.3619 L238.2468 382.898 L237.0689 390.0909 L230.1679 392.4364 Z" stroke-width="3" clip-path="url(#clipPath2)" stroke="none"/>
      <path fill="none" d="M271.0924 211.8287 L279.4908 220.1538" stroke-width="3" clip-path="url(#clipPath2)"/>
      <path fill="none" d="M286.4908 224.979 L304.3918 231.9128" stroke-width="3" clip-path="url(#clipPath2)"/>
      <path d="M313.7167 235.5248 L301.9868 224.2788 L303.2262 231.4613 L297.4719 235.9349 Z" stroke-width="3" clip-path="url(#clipPath2)" stroke="none"/>
      <path fill="none" d="M351.4038 236.6183 L368.3291 231.168" stroke-width="3" clip-path="url(#clipPath2)"/>
      <path fill="none" d="M375.0372 226.541 L387.5736 212.864" stroke-width="3" clip-path="url(#clipPath2)"/>
      <path d="M394.3306 205.4922 L379.5878 212.3267 L386.729 213.7854 L388.8025 220.773 Z" stroke-width="3" clip-path="url(#clipPath2)" stroke="none"/>
      <path fill="none" d="M326.8884 46.5355 L326.8884 71.3971" stroke-width="3" clip-path="url(#clipPath2)"/>
      <path fill="none" d="M326.8884 78.3971 L326.8884 99.476" stroke-width="3" clip-path="url(#clipPath2)"/>
      <path d="M326.8884 109.476 L333.1384 94.476 L326.8884 98.226 L320.6384 94.476 Z" stroke-width="3" clip-path="url(#clipPath2)" stroke="none"/>
      <path fill="none" d="M427.789 192.2399 L457.8447 194.487" stroke-width="3" clip-path="url(#clipPath2)"/>
      <path fill="none" d="M464.8447 195.5864 L501.1065 204.2655" stroke-width="3" clip-path="url(#clipPath2)"/>
      <path d="M510.8318 206.5932 L497.6986 197.0234 L499.8908 203.9746 L494.789 209.18 Z" stroke-width="3" clip-path="url(#clipPath2)" stroke="none"/>
      <path fill="none" d="M218.7391 311.8004 L253.3884 311.8004" stroke-width="3" clip-path="url(#clipPath2)"/>
      <path fill="none" d="M260.3884 313.3113 L317.7783 338.0846" stroke-width="3" clip-path="url(#clipPath2)"/>
      <path d="M326.9594 342.0477 L315.6647 330.3648 L316.6306 337.5892 L310.7107 341.8412 Z" stroke-width="3" clip-path="url(#clipPath2)" stroke="none"/>
      <path fill="none" d="M260.3884 311.8616 L453.2331 315.2314" stroke-width="3" clip-path="url(#clipPath2)"/>
      <path d="M463.2315 315.4061 L448.343 308.895 L451.9832 315.2095 L448.1246 321.3931 Z" stroke-width="3" clip-path="url(#clipPath2)" stroke="none"/>
      <path fill="none" d="M549.9176 215.0513 L568.1265 218.5777" stroke-width="3" clip-path="url(#clipPath2)"/>
      <path fill="none" d="M575.1265 220.5733 L609.9504 233.6847" stroke-width="3" clip-path="url(#clipPath2)"/>
      <path d="M619.309 237.2083 L607.4733 226.0738 L608.7805 233.2443 L603.0688 237.7721 Z" stroke-width="3" clip-path="url(#clipPath2)" stroke="none"/>
      <path fill="none" d="M589.2841 299.2249 L599.1428 284.7487" stroke-width="3" clip-path="url(#clipPath2)"/>
      <path fill="none" d="M604.9797 277.7487 L616.9559 265.6106" stroke-width="3" clip-path="url(#clipPath2)"/>
      <path d="M623.9794 258.4922 L608.9952 264.7801 L616.078 266.5004 L617.8932 273.5594 Z" stroke-width="3" clip-path="url(#clipPath2)" stroke="none"/>
      <path fill="none" d="M589.3486 332.2421 L599.1227 346.4741" stroke-width="3" clip-path="url(#clipPath2)"/>
      <path fill="none" d="M605.0263 353.4052 L616.6033 364.7543" stroke-width="3" clip-path="url(#clipPath2)"/>
      <path d="M623.7443 371.7547 L617.408 356.7909 L615.7107 363.8792 L608.6575 365.7172 Z" stroke-width="3" clip-path="url(#clipPath2)" stroke="none"/>
      <path fill="none" d="M653.3348 257.1261 L662.4775 264.8129" stroke-width="3" clip-path="url(#clipPath2)"/>
      <path fill="none" d="M668.4777 271.2555 L678.0569 284.6657" stroke-width="3" clip-path="url(#clipPath2)"/>
      <path d="M683.8696 292.8029 L680.2363 276.9642 L677.3304 283.6486 L670.0649 284.23 Z" stroke-width="3" clip-path="url(#clipPath2)" stroke="none"/>
      <path fill="none" d="M652.2659 371.7115 L662.4775 361.6403" stroke-width="3" clip-path="url(#clipPath2)"/>
      <path fill="none" d="M668.0812 354.6884 L680.0405 334.7903" stroke-width="3" clip-path="url(#clipPath2)"/>
      <path d="M685.192 326.2193 L672.1078 335.8561 L679.3965 335.8617 L682.8216 342.2955 Z" stroke-width="3" clip-path="url(#clipPath2)" stroke="none"/>
      <path fill="none" d="M715.3431 306.6182 L724.9044 305.4336" stroke-width="3" clip-path="url(#clipPath2)"/>
      <path fill="none" d="M731.9044 305 L753.413 305" stroke-width="3" clip-path="url(#clipPath2)"/>
      <path d="M763.413 305 L748.413 298.75 L752.163 305 L748.413 311.25 Z" stroke-width="3" clip-path="url(#clipPath2)" stroke="none"/>
      <path fill="none" d="M275.7368 396.8602 L288.3217 385.459" stroke-width="3" clip-path="url(#clipPath2)"/>
      <path fill="none" d="M295.3217 380.1742 L319.6423 365.4845" stroke-width="3" clip-path="url(#clipPath2)"/>
      <path d="M328.2021 360.3144 L312.1311 362.7197 L318.5723 366.1307 L318.5937 373.4194 Z" stroke-width="3" clip-path="url(#clipPath2)" stroke="none"/>
      <path fill="none" d="M294.3762 385.7882 L327.6354 431.3571" stroke-width="3" clip-path="url(#clipPath2)"/>
      <path d="M333.5309 439.4345 L329.7361 423.6338 L326.8985 430.3474 L319.6394 431.003 Z" stroke-width="3" clip-path="url(#clipPath2)" stroke="none"/>
      <path fill="none" d="M364.4948 355.6655 L378.9175 359.9469" stroke-width="3" clip-path="url(#clipPath2)"/>
      <path fill="none" d="M385.9175 363.9947 L403.6411 379.2312" stroke-width="3" clip-path="url(#clipPath2)"/>
      <path d="M411.2241 385.7502 L403.9239 371.2323 L402.6931 378.4164 L395.7751 380.7111 Z" stroke-width="3" clip-path="url(#clipPath2)" stroke="none"/>
      <path fill="none" d="M363.5955 447.4612 L378.9175 440.646" stroke-width="3" clip-path="url(#clipPath2)"/>
      <path fill="none" d="M385.9175 435.8815 L404.2738 419.0579" stroke-width="3" clip-path="url(#clipPath2)"/>
      <path d="M411.646 412.3013 L396.3649 417.8286 L403.3523 419.9025 L404.8106 427.0438 Z" stroke-width="3" clip-path="url(#clipPath2)" stroke="none"/>
      <path fill="none" d="M439.3956 383.5941 L452.3376 368.4741" stroke-width="3" clip-path="url(#clipPath2)"/>
      <path fill="none" d="M457.317 361.4741 L468.4363 341.8552" stroke-width="3" clip-path="url(#clipPath2)"/>
      <path d="M473.367 333.1553 L460.5335 343.1234 L467.8199 342.9427 L471.4084 349.2868 Z" stroke-width="3" clip-path="url(#clipPath2)" stroke="none"/>
      <path fill="none" d="M503.2285 315.7555 L521.0263 315.7555" stroke-width="3" clip-path="url(#clipPath2)"/>
      <path fill="none" d="M528.0263 315.7555 L548.0263 315.7555" stroke-width="3" clip-path="url(#clipPath2)"/>
      <path d="M558.0263 315.7555 L543.0263 309.5055 L546.7763 315.7555 L543.0263 322.0055 Z" stroke-width="3" clip-path="url(#clipPath2)" stroke="none"/>
      <path fill="none" d="M443.932 220.4379 L458.9723 198.2487" stroke-width="3" clip-path="url(#clipPath2)"/>
      <path fill="none" d="M357.8183 334.3589 L397.5207 284.7487" stroke-width="3" clip-path="url(#clipPath2)"/>
      <path fill="none" d="M402.8832 277.7487 L414.9928 261.2023" stroke-width="3" clip-path="url(#clipPath2)"/>
      <path d="M420.8987 253.1326 L406.9963 261.546 L414.2546 262.211 L417.0834 268.9283 Z" stroke-width="3" clip-path="url(#clipPath2)" stroke="none"/>
    </g>
  </g>
</svg>
